<svg xmlns="http://www.w3.org/2000/svg" version="1.1" width="500" height="500">
<path d="M0 0 C0.96382599 0.38754959 1.92765198 0.77509918 2.92068481 1.1743927 C6.09803913 2.45477543 9.26965321 3.74877978 12.44140625 5.04296875 C14.69687039 5.95504083 16.9526542 6.86632277 19.20874023 7.77685547 C26.14617234 10.58076453 33.0760062 13.40310243 40.00390625 16.23046875 C41.03004028 16.64911194 42.05617432 17.06775513 43.11340332 17.49908447 C51.90715146 21.08760255 60.69917889 24.68031246 69.48754883 28.28198242 C81.54464292 33.21787253 93.62544117 38.09127355 105.7265625 42.91796875 C106.4463711 43.20519176 107.1661797 43.49241478 107.90780067 43.78834152 C114.36785973 46.3659713 120.82812343 48.94307623 127.29299927 51.50860596 C140.59902537 56.78900217 153.89163285 62.08889888 167.03515625 67.765625 C167.9602298 68.16306915 168.88530334 68.56051331 169.83840942 68.97000122 C183.25906957 74.83877045 192.66334108 82.95388743 198.44921875 96.65234375 C202.67415313 109.71123183 201.15655192 123.47210175 199.81640625 136.91796875 C199.71895615 137.90701706 199.71895615 137.90701706 199.61953735 138.91604614 C195.49134238 180.21094851 184.74223933 220.6838838 167.00390625 258.23046875 C166.56433594 259.1632666 166.12476563 260.09606445 165.671875 261.05712891 C145.87600074 302.66697268 116.99400725 342.05000363 82.00390625 372.23046875 C80.41953101 373.68767006 78.83623193 375.14604215 77.25390625 376.60546875 C52.84598341 398.51195851 15.30813191 431.23046875 -18.99609375 431.23046875 C-26.68107616 430.61335598 -33.18998245 428.77686684 -39.99609375 425.23046875 C-41.05957031 424.69679688 -42.12304688 424.163125 -43.21875 423.61328125 C-59.41901907 415.34132232 -74.57279975 405.28301504 -88.99609375 394.23046875 C-89.58197266 393.78348633 -90.16785156 393.33650391 -90.77148438 392.87597656 C-102.76939416 383.68904343 -114.51203488 374.13670449 -124.99609375 363.23046875 C-127.79283409 360.41440723 -130.61328562 357.62411319 -133.44921875 354.84765625 C-140.78777279 347.63514791 -147.64597277 340.34201904 -153.99609375 332.23046875 C-154.87582251 331.17190878 -155.75882036 330.11605974 -156.64453125 329.0625 C-204.77851362 271.29515109 -234.81997587 191.53756908 -235.24609375 116.16796875 C-235.26671875 115.25208984 -235.28734375 114.33621094 -235.30859375 113.39257812 C-235.37879407 100.99344599 -230.98547419 89.99701794 -222.73828125 80.6796875 C-213.3359176 71.68546504 -201.19102696 67.33840136 -189.25152588 62.65359497 C-186.19097126 61.45246634 -183.13534645 60.23901034 -180.0793457 59.02635193 C-178.47230977 58.38871436 -176.86504846 57.75164456 -175.25756836 57.11512756 C-166.69288136 53.72164033 -158.15594557 50.2606593 -149.62109375 46.79296875 C-148.06634553 46.16181435 -146.51157654 45.53071108 -144.95678711 44.8996582 C-141.84083241 43.63481078 -138.72504128 42.3695616 -135.609375 41.10400391 C-123.46103328 36.16977931 -111.30888032 31.24493984 -99.15625 26.32128906 C-95.49200545 24.83671182 -91.82798568 23.35158114 -88.1640625 21.86621094 C-83.00182965 19.77358874 -77.83895181 17.68256388 -72.67572021 15.59240723 C-70.68387147 14.78582928 -68.69220412 13.9788032 -66.70074463 13.17126465 C-60.138091 10.51036886 -53.56958467 7.86447303 -46.99609375 5.23046875 C-45.96480347 4.81599487 -44.93351318 4.401521 -43.87097168 3.9744873 C-40.7356229 2.71715861 -37.59686801 1.46872929 -34.45703125 0.22265625 C-33.49769684 -0.16300507 -32.53836243 -0.54866638 -31.54995728 -0.9460144 C-19.67932572 -5.62942772 -11.61037768 -4.77472593 0 0 Z M-95.35546875 94.9609375 C-98.42462539 100.22685351 -98.22367454 104.35331454 -96.99609375 110.23046875 C-95.75342444 114.2160598 -94.25409578 118.08881151 -92.74609375 121.98046875 C-87.01527904 137.32166336 -82.90004638 152.93617651 -80.99609375 169.23046875 C-80.88523438 170.13796875 -80.774375 171.04546875 -80.66015625 171.98046875 C-77.67328579 201.04191106 -81.98367627 229.87739631 -91.99609375 257.23046875 C-97.38390344 255.75030125 -101.55625553 253.18320204 -106.18359375 250.16796875 C-107.5919294 249.25759403 -109.00201817 248.34992415 -110.4140625 247.4453125 C-111.03047607 247.0443335 -111.64688965 246.64335449 -112.28198242 246.23022461 C-116.30942668 243.88121674 -120.46252873 243.6471056 -124.99609375 244.23046875 C-129.15979825 245.62396663 -132.03501033 247.80264083 -134.43359375 251.48046875 C-136.38888132 255.44183059 -136.74241228 258.90161918 -135.99609375 263.23046875 C-133.40799354 268.6949173 -131.13236728 271.34018403 -125.87109375 274.54296875 C-125.26418701 274.91413818 -124.65728027 275.28530762 -124.03198242 275.66772461 C-122.03215341 276.87709343 -120.01628202 278.05546613 -117.99609375 279.23046875 C-117.30112793 279.64232422 -116.60616211 280.05417969 -115.89013672 280.47851562 C-73.34594361 305.58529565 -25.66330865 314.61667701 22.54663086 302.81469727 C44.55918991 297.12977713 65.37735325 287.53053043 84.62890625 275.48046875 C85.32145508 275.05725342 86.01400391 274.63403809 86.72753906 274.19799805 C91.95171758 270.79386864 95.1667506 267.07769139 96.53515625 260.7890625 C96.45694716 255.48062051 95.57875182 252.40112191 92.00390625 248.23046875 C88.16472927 244.85664656 84.50516542 243.74385724 79.35546875 243.828125 C74.38913846 244.67784596 70.25881993 247.66349928 66.00390625 250.23046875 C64.15227669 251.30005297 62.29476202 252.35881975 60.43603516 253.41601562 C59.21375691 254.11190661 57.99329312 254.81099679 56.77490234 255.51367188 C53.88939458 257.17670299 50.99042874 258.75797244 48.00390625 260.23046875 C47.82722412 259.63838623 47.65054199 259.04630371 47.46850586 258.4362793 C46.10799431 253.88780256 44.73078278 249.34574658 43.3203125 244.8125 C40.25282869 234.81141374 37.4967822 224.85494064 35.69140625 214.54296875 C35.54453369 213.71579346 35.39766113 212.88861816 35.24633789 212.03637695 C33.63947663 202.17101798 32.89641911 192.18046295 32.00390625 182.23046875 C32.93565674 182.24379242 32.93565674 182.24379242 33.88623047 182.25738525 C40.37539429 182.34616218 46.86438441 182.40632875 53.35400391 182.45019531 C55.77302055 182.4702594 58.19198901 182.49751718 60.61083984 182.53222656 C64.09614993 182.58097216 67.58081641 182.60349039 71.06640625 182.62109375 C72.14067871 182.64173889 73.21495117 182.66238403 74.32177734 182.68365479 C80.73006842 182.68555208 85.69503478 182.01357684 91.00390625 178.23046875 C95.2596471 173.64736322 96.36373769 170.66640431 96.28515625 164.546875 C95.70801551 159.79347976 92.88695053 157.04728471 89.50390625 153.91796875 C85.50240882 151.21695798 82.12445579 151.1058188 77.35980225 151.11021423 C75.63506683 151.10815224 75.63506683 151.10815224 73.87548828 151.10604858 C72.61816895 151.10964386 71.36084961 151.11323914 70.06542969 151.11694336 C68.72495526 151.1172255 67.38448068 151.11706696 66.04400635 151.11650085 C62.40798199 151.11621394 58.77199062 151.12209357 55.13597393 151.12907481 C51.33497472 151.13532596 47.53397475 151.13591355 43.73297119 151.13710022 C36.53657255 151.14020833 29.34018911 151.14841473 22.14379716 151.15844971 C13.95039201 151.16962697 5.75698614 151.17512537 -2.43642473 151.18014514 C-19.28965653 151.19059776 -36.14287353 151.20818716 -52.99609375 151.23046875 C-53.09502379 150.30118954 -53.09502379 150.30118954 -53.19595242 149.35313702 C-53.28391614 148.54128854 -53.37187986 147.72944006 -53.46250916 146.89299011 C-53.54908751 146.08784564 -53.63566587 145.28270117 -53.72486782 144.45315838 C-54.01490951 142.07627406 -54.47551541 139.83567386 -55.125 137.53125 C-55.4645874 136.32190796 -55.4645874 136.32190796 -55.81103516 135.08813477 C-56.05772949 134.24822998 -56.30442383 133.4083252 -56.55859375 132.54296875 C-56.81817871 131.64956787 -57.07776367 130.75616699 -57.34521484 129.83569336 C-59.40126523 122.91622362 -61.68972028 116.08904883 -64.12109375 109.29296875 C-64.44537354 108.37620361 -64.76965332 107.45943848 -65.10375977 106.51489258 C-67.66668423 99.5281122 -70.15652881 93.44375178 -77.07421875 89.92578125 C-83.92919793 87.44572781 -90.82496662 89.19366036 -95.35546875 94.9609375 Z " fill="#fff" transform="translate(265.99609375,36.76953125)"/>
<path d="M0 0 C1.04590805 0.00222061 2.0918161 0.00444122 3.16941833 0.00672913 C4.35056717 0.00680466 5.531716 0.00688019 6.74865723 0.00695801 C8.03404892 0.01211929 9.31944061 0.01728058 10.64378357 0.02259827 C12.60601112 0.02472069 12.60601112 0.02472069 14.60787964 0.02688599 C18.09150591 0.03071042 21.57509071 0.04054005 25.05870056 0.05158997 C28.6111444 0.06180569 32.16359491 0.06638395 35.71604919 0.07142639 C42.69067564 0.0821624 49.66527449 0.09923792 56.63987732 0.12025452 C56.93046021 1.133722 56.93046021 1.133722 57.22691345 2.16766357 C58.12176495 5.28170224 59.02141686 8.39433514 59.92112732 11.50697327 C60.22566833 12.56944275 60.53020935 13.63191223 60.84397888 14.72657776 C62.93267232 21.93616179 65.23923393 29.01589774 67.94578552 36.01759338 C69.74293156 40.81109179 69.74293156 40.81109179 68.63987732 44.12025452 C66.92503357 44.81214905 66.92503357 44.81214905 64.70237732 45.25306702 C63.48227966 45.50250061 63.48227966 45.50250061 62.23753357 45.75697327 C60.95169373 45.99867249 60.95169373 45.99867249 59.63987732 46.24525452 C58.40044373 46.4985553 58.40044373 46.4985553 57.13597107 46.75697327 C33.23363212 51.50751638 9.00495206 49.69605399 -14.36012268 43.12025452 C-13.7026015 38.08189947 -12.23745742 33.62684564 -10.54762268 28.87025452 C-8.01715947 21.56671173 -6.10977532 14.26677073 -4.56593323 6.69544983 C-3.23115224 0.16463579 -3.23115224 0.16463579 0 0 Z " fill="#fff" transform="translate(216.36012268066406,264.87974548339844)"/>
<path d="M0 0 C16.83 0 33.66 0 51 0 C51 5.28 51 10.56 51 16 C34.17 16 17.34 16 0 16 C0 10.72 0 5.44 0 0 Z " fill="#fff" transform="translate(217,219)"/>
</svg>